<svg width="28" height="29" viewBox="0 0 28 29" fill="none" xmlns="http://www.w3.org/2000/svg">
<g filter="url(#filter0_d_2242_34736)">
<path fill-rule="evenodd" clip-rule="evenodd" d="M4.25 9.37058C4.25 6.07188 6.65767 3.25146 9.79925 3.25146C11.4991 3.25146 12.994 4.08755 14 5.36993C15.0059 4.0876 16.5006 3.25146 18.1996 3.25146C21.3423 3.25146 23.75 6.07314 23.75 9.37058C23.75 10.6968 23.2489 11.9728 22.5251 13.1299C21.7997 14.2897 20.8229 15.3747 19.8015 16.3341C17.7592 18.2522 15.4589 19.7412 14.3901 20.392C14.1504 20.538 13.8493 20.5379 13.6096 20.3919C12.5411 19.7406 10.2408 18.2516 8.19851 16.3336C7.17709 15.3744 6.20033 14.2895 5.47488 13.1297C4.75114 11.9727 4.25 10.6968 4.25 9.37058ZM9.79925 4.75146C7.63983 4.75146 5.75 6.73771 5.75 9.37058C5.75 10.3194 6.11117 11.3184 6.74658 12.3342C7.38027 13.3473 8.25947 14.3331 9.22537 15.2402C10.9407 16.8511 12.8666 18.1561 14.0001 18.8693C15.1335 18.1566 17.0594 16.8517 18.7746 15.2407C19.7405 14.3335 20.6197 13.3476 21.2534 12.3345C21.8888 11.3185 22.25 10.3194 22.25 9.37058C22.25 6.73897 20.3602 4.75146 18.1996 4.75146C16.7203 4.75146 15.3843 5.66695 14.6719 7.10301C14.5452 7.35825 14.2849 7.5197 14 7.5197C13.7151 7.5197 13.4548 7.35825 13.3281 7.10301C12.6158 5.66705 11.2798 4.75146 9.79925 4.75146Z" fill="#AFAFAF"/>
</g>
<defs>
<filter id="filter0_d_2242_34736" x="-2" y="0.00146484" width="32" height="32" filterUnits="userSpaceOnUse" color-interpolation-filters="sRGB">
<feFlood flood-opacity="0" result="BackgroundImageFix"/>
<feColorMatrix in="SourceAlpha" type="matrix" values="0 0 0 0 0 0 0 0 0 0 0 0 0 0 0 0 0 0 127 0" result="hardAlpha"/>
<feOffset dy="4"/>
<feGaussianBlur stdDeviation="2"/>
<feComposite in2="hardAlpha" operator="out"/>
<feColorMatrix type="matrix" values="0 0 0 0 0 0 0 0 0 0 0 0 0 0 0 0 0 0 0.25 0"/>
<feBlend mode="normal" in2="BackgroundImageFix" result="effect1_dropShadow_2242_34736"/>
<feBlend mode="normal" in="SourceGraphic" in2="effect1_dropShadow_2242_34736" result="shape"/>
</filter>
</defs>
</svg>
