<?xml version="1.0" encoding="utf-8"?>

<!DOCTYPE svg PUBLIC "-//W3C//DTD SVG 1.1//EN" "http://www.w3.org/Graphics/SVG/1.1/DTD/svg11.dtd">
<!-- Uploaded to: SVG Repo, www.svgrepo.com, Generator: SVG Repo Mixer Tools -->
<svg height="800px" width="800px" version="1.1" id="_x32_" xmlns="http://www.w3.org/2000/svg" xmlns:xlink="http://www.w3.org/1999/xlink" 
	 viewBox="0 0 512 512"  xml:space="preserve">
<style type="text/css">
	.st0{fill:#000000;}
</style>
<g>
	<path class="st0" d="M435.924,97.105c-4.452-7.72-10.798-14.374-16.971-18.044c-4.12-2.479-7.996-3.6-11.311-3.6
		c-2.652,0.016-5.036,0.615-7.743,2.242c-40.553,24.793-74.005,55.727-98.546,90.127c-24.557,34.392-40.217,72.217-45.427,110.918
		c-0.813,5.992-6.322,10.183-12.306,9.378c-5.999-0.797-10.19-6.307-9.393-12.298c5.739-42.593,22.915-83.734,49.302-120.722
		c13.79-19.292,30.105-37.462,48.623-54.149c-6.882-14.019-3.631-28.504,3.363-41.875c3.67-7.017,7.562-13.442,10.285-19.844
		c-0.118-0.323-0.402-0.868-0.892-1.562c-1.042-1.5-3.039-3.561-5.636-5.581c-5.21-4.088-12.787-8.059-19.568-10.332
		c-4.492-1.539-8.699-2.297-11.051-2.258l-0.671,0.008c-0.379,0.718-0.828,1.594-1.318,2.589c-1.002,2.044-2.233,4.586-3.623,7.324
		c-2.85,5.487-6.338,11.801-11.162,17.413c-3.228,3.726-7.12,7.286-12.353,9.614c-2.96,1.318-6.402,2.163-9.985,2.139
		c-18.456,0.079-27.627-17.192-29.798-33.089c-0.378-2.826-0.544-5.289-0.544-7.396c0-0.656,0-1.232,0-1.752
		c0.008-1.76-0.087-2.66-0.158-2.936c-0.102-0.293,0.016-0.158-0.386-0.734c-0.285-0.379-0.861-1.01-1.903-1.871
		c-1.279-1.105-3.994-2.478-7.672-3.362c-3.655-0.9-8.186-1.373-12.843-1.366c-4.184,0-8.477,0.364-12.361,1.018
		c-21.391,3.544-17.057,17.113-17.057,34.708c0,4.278-0.174,9.108-0.727,14.516c-0.592,6.165-2.162,11.911-4.451,17.208
		c-2.274,5.288-5.257,10.087-8.659,14.563c-6.797,8.936-15.18,16.593-24.099,24.676c-17.855,16.141-38.014,33.831-54.386,63.408
		c-38.851,70.306-31.329,152.912,8.865,220.747c22.772,38.536,55.111,72.525,92.44,93.254C220.729,504.012,247.772,512,276.054,512
		c11.706,0,23.649-1.366,35.79-4.294c12.795-3.52,26.064-11.398,38.685-23.104c12.684-11.722,24.663-27.201,34.908-45.292
		c20.523-36.184,34.021-82.778,33.974-130.313c0-36.641-7.949-73.763-26.491-107.674c-2.534,2.85-4.957,5.81-7.23,8.904
		c-5.825,7.948-10.728,16.734-14.256,26.814c-2.004,5.714-8.252,8.722-13.952,6.71c-5.706-1.989-8.706-8.225-6.709-13.94
		c4.294-12.322,10.324-23.097,17.282-32.545c6.955-9.456,14.816-17.618,22.868-24.864c16.095-14.484,32.971-25.527,45.222-35.662
		c2.463-2.06,4.057-4.294,5.193-6.93c1.106-2.644,1.689-5.746,1.689-9.259C443.091,113.46,440.47,104.809,435.924,97.105z"/>
	<polygon class="st0" points="262.075,0.048 262.059,0 262.067,0.032 	"/>
	<path class="st0" d="M90.843,74.412c2.43,4.933,5.098,10.696,7.601,17.026c3.717,9.378,7.119,19.962,8.659,31.006
		c6.748-7.168,13.426-13.49,19.678-19.174c8.628-7.862,16.387-14.658,22.458-21.068c-2.731-2.526-5.037-5.352-7.223-8.422
		c-5.06-7.151-9.519-15.605-13.766-23.325c-2.518-4.626-4.934-8.904-7.128-12.33c-0.663-0.189-1.839-0.394-3.394-0.386
		c-2.439-0.008-5.715,0.481-9.401,1.76c-3.678,1.279-7.767,3.355-11.966,6.512c-5.352,4.002-8.407,7.507-10.025,10.08
		c-1.594,2.597-1.807,4.168-1.815,5.067c0,0.726,0.142,1.137,0.316,1.484C86.257,65.413,88.427,69.502,90.843,74.412z"/>
	<polygon class="st0" points="443.012,64 442.87,63.874 442.886,63.898 	"/>
</g>
</svg>